<svg width="30" height="30" viewBox="0 0 30 30" fill="none" xmlns="http://www.w3.org/2000/svg">
<path d="M23.75 10H21.25V13.75H17.5V16.25H21.25V20H23.75V16.25H27.5V13.75H23.75V10ZM5 10C5 12.85 7.15 15 10 15C12.85 15 15 12.85 15 10C15 7.15 12.85 5 10 5C7.15 5 5 7.15 5 10ZM12.5 10C12.5 11.4725 11.4725 12.5 10 12.5C8.5275 12.5 7.5 11.4725 7.5 10C7.5 8.5275 8.5275 7.5 10 7.5C11.4725 7.5 12.5 8.5275 12.5 10ZM5 22.5C5 20.4325 6.6825 18.75 8.75 18.75H11.25C13.3175 18.75 15 20.4325 15 22.5V23.75H17.5V22.5C17.5 19.0538 14.6962 16.25 11.25 16.25H8.75C5.30375 16.25 2.5 19.0538 2.5 22.5V23.75H5V22.5Z" fill="#900020"/>
</svg>
