<svg width="30" height="34" viewBox="0 0 30 34" fill="none" xmlns="http://www.w3.org/2000/svg">
<path d="M29.7333 6.03335C29.65 5.83335 29.55 5.65002 29.4333 5.46669C29.2 5.11669 28.8833 4.80002 28.5333 4.56669C28.35 4.45002 28.1667 4.35002 27.9667 4.26669C27.5667 4.10002 27.1333 4.00002 26.6667 4.00002H25V0.666687H21.6667V4.00002H8.33333V0.666687H5V4.00002H3.33333C2.63333 4.00002 2 4.21669 1.46667 4.56669C1.11667 4.80002 0.8 5.11669 0.566666 5.46669C0.45 5.65002 0.35 5.83335 0.266667 6.03335C0.1 6.43335 0 6.86669 0 7.33335V30.6667C0 31.5507 0.351189 32.3986 0.976311 33.0237C1.60143 33.6488 2.44928 34 3.33333 34H26.6667C27.1333 34 27.5667 33.9 27.9667 33.7334C28.1667 33.65 28.35 33.55 28.5333 33.4334C28.8833 33.2 29.2 32.8834 29.4333 32.5334C29.7833 32 30 31.35 30 30.6667V7.33335C30 6.86669 29.9 6.43335 29.7333 6.03335ZM3.33333 30.6667V7.33335H26.6667V30.6667H3.33333ZM15 20.4667C11.6167 20.4667 5 22.2667 5 26.4334V29H25V26.45C25 22.2667 18.3833 20.4667 15 20.4667ZM8.85 25.6667C10 24.7334 12.8167 23.8 15 23.8C17.1833 23.8 20.0167 24.7334 21.15 25.6667H8.85ZM15 19C17.75 19 20 16.75 20 14C20 11.25 17.75 9.00002 15 9.00002C12.25 9.00002 10 11.25 10 14C10 16.75 12.25 19 15 19ZM15 12.3334C15.9167 12.3334 16.6667 13.0834 16.6667 14C16.6667 14.9167 15.9167 15.6667 15 15.6667C14.0833 15.6667 13.3333 14.9167 13.3333 14C13.3333 13.0834 14.0833 12.3334 15 12.3334Z" fill="white" fill-opacity="1"/>
</svg>
