<svg width="27" height="33" viewBox="0 0 27 33" fill="none" xmlns="http://www.w3.org/2000/svg">
<path d="M13.5 32.6667C15.3334 32.6667 16.8334 31.1667 16.8334 29.3334H10.1667C10.1667 31.1667 11.6667 32.6667 13.5 32.6667ZM23.5 22.6667V14.3334C23.5 9.21669 20.7834 4.93335 16 3.80002V2.66669C16 1.28335 14.8834 0.166687 13.5 0.166687C12.1167 0.166687 11 1.28335 11 2.66669V3.80002C6.23335 4.93335 3.50002 9.20002 3.50002 14.3334V22.6667L0.166687 26V27.6667H26.8334V26L23.5 22.6667ZM20.1667 24.3334H6.83335V14.3334C6.83335 10.2 9.35002 6.83335 13.5 6.83335C17.65 6.83335 20.1667 10.2 20.1667 14.3334V24.3334Z" fill-opacity="0.25" fill="white"/>
</svg>
