<svg width="33" height="34" viewBox="0 0 33 34" fill="none" xmlns="http://www.w3.org/2000/svg">
<path d="M7.32 0.75C6.66625 0.75 6.02 0.9875 5.4825 1.4125L5.4075 1.45375L5.3675 1.49125L1.46125 5.51625L1.49875 5.55375C0.294999 6.66875 -0.0800015 8.33375 0.443749 9.77375C0.446249 9.78 0.441249 9.80375 0.443749 9.81125C1.5025 12.8462 4.215 18.6987 9.50625 23.9913C14.8187 29.3038 20.7525 31.9038 23.6862 33.0537H23.7237C24.4596 33.2964 25.2456 33.3447 26.0056 33.194C26.7655 33.0433 27.4737 32.6988 28.0612 32.1938L28.0987 32.1562L28.1387 32.1163L32.0087 28.25C33.0462 27.2125 33.0462 25.42 32.0087 24.3825L26.9312 19.305L26.8912 19.2262C25.8537 18.1887 24.0225 18.1887 22.985 19.2262L22.9475 19.2663L20.485 21.7288C18.6086 20.8272 16.8829 19.6411 15.3687 18.2125C13.3237 16.2587 12.2762 14.0125 11.8937 13.1325L14.3912 10.6325C15.4437 9.58 15.46 7.8375 14.3537 6.805L14.3912 6.765L14.275 6.64875L9.275 1.49125L9.23375 1.45375L9.15625 1.4125C8.63611 0.99055 7.98848 0.75705 7.31875 0.75H7.32ZM7.32 3.25C7.4125 3.25 7.50375 3.295 7.595 3.3675L12.595 8.48375L12.6725 8.5625L12.71 8.6C12.7012 8.59375 12.785 8.72125 12.6325 8.875L9.5075 12L8.92 12.5475L9.195 13.3275C9.195 13.3275 10.6325 17.1687 13.6487 20.0475L13.92 20.2812C16.825 22.9338 20.25 24.3813 20.25 24.3813L21.0312 24.7337L21.6187 24.1488L24.7437 21.0238C24.9562 20.8113 24.9187 20.8113 25.1312 21.0238L30.25 26.14C30.4625 26.3525 30.4625 26.2775 30.25 26.49L26.4212 30.3188C25.8462 30.8138 25.2375 30.9137 24.5087 30.6712C21.6737 29.5588 16.1712 27.1375 11.265 22.2337C6.32125 17.2875 3.7375 11.675 2.79 8.95375C2.59875 8.445 2.73625 7.69125 3.18 7.3125L3.2175 7.275L3.2575 7.23375L7.0475 3.3675C7.12188 3.29857 7.21758 3.25711 7.31875 3.25H7.32Z" fill="white" fill-opacity="1"/>
</svg>
