<svg width="34" height="34" viewBox="0 0 34 34" fill="none" xmlns="http://www.w3.org/2000/svg">
<path d="M3.99473 14.9795L3.8989 19.3889C3.88695 19.9274 4.08477 20.4436 4.45739 20.8331C4.83001 21.2227 5.33481 21.4452 5.87541 21.4551L10.6223 21.5647C11.1607 21.5766 11.6791 21.3768 12.0686 21.0042C12.4603 20.6295 12.6807 20.1268 12.6928 19.5841L12.7773 15.8707C14.1975 15.3397 15.7062 15.0856 17.222 15.1219C18.7464 15.1516 20.2313 15.4705 21.6313 16.0611L21.5468 19.7745C21.5349 20.313 21.7327 20.8292 22.1053 21.2187C22.2884 21.4116 22.5081 21.5659 22.7516 21.6727C22.9951 21.7795 23.2575 21.8367 23.5233 21.8408L28.2722 21.9524C28.8107 21.9644 29.329 21.7645 29.7185 21.3919C30.1102 21.0173 30.3306 20.5145 30.3427 19.9719L30.4405 15.5646C30.461 14.645 30.1102 13.74 29.4743 13.0753C29.3426 12.9376 29.2045 12.8144 29.0516 12.7012C25.9088 10.3396 21.7553 8.9855 17.3625 8.88589C12.9676 8.79246 8.76008 9.96302 5.50943 12.1805C4.58583 12.8086 4.02168 13.8591 3.99473 14.9795ZM6.6933 13.9225C9.58423 11.9478 13.3578 10.9085 17.3136 10.9963C21.2694 11.0841 24.9911 12.2878 27.7916 14.3889C28.1442 14.6516 28.3462 15.0747 28.3383 15.52L28.2422 19.8486L23.6506 19.7487L23.765 14.7823L23.7658 14.745L23.159 14.4497C21.323 13.5508 19.3134 13.0619 17.2696 13.0169C15.2257 12.9719 13.1966 13.3718 11.3227 14.189L10.7034 14.4571L10.5944 19.4588L6.00276 19.3589L6.09887 15.0303C6.1088 14.583 6.32934 14.1693 6.6933 13.9225Z" fill="white"/>
</svg>
