<svg width="26" height="24" viewBox="0 0 26 24" fill="none" xmlns="http://www.w3.org/2000/svg">
<path d="M16.3369 0.369141C16.1641 0.369141 15.9883 0.416016 15.8271 0.524414L5.44141 7.3125H0.636719C0.378906 7.3125 0.167969 7.52344 0.167969 7.78125V16.2188C0.167969 16.4766 0.378906 16.6875 0.636719 16.6875H5.44141L15.8271 23.4756C15.9883 23.5811 16.167 23.6309 16.3369 23.6309C16.8262 23.6309 17.2773 23.2412 17.2773 22.6904V1.30957C17.2773 0.758789 16.8262 0.369141 16.3369 0.369141ZM15.168 20.5254L6.5957 14.9209L6.06836 14.5781H2.27734V9.42188H6.06836L6.59277 9.0791L15.168 3.47461V20.5254ZM25.3633 10.9453H21.6133C21.3555 10.9453 21.1445 11.1562 21.1445 11.4141V12.5859C21.1445 12.8438 21.3555 13.0547 21.6133 13.0547H25.3633C25.6211 13.0547 25.832 12.8438 25.832 12.5859V11.4141C25.832 11.1562 25.6211 10.9453 25.3633 10.9453ZM24.1357 18.6152L20.9043 16.749C20.8512 16.7186 20.7926 16.699 20.732 16.6912C20.6713 16.6835 20.6097 16.6877 20.5506 16.7038C20.4916 16.7198 20.4363 16.7473 20.3879 16.7848C20.3395 16.8222 20.2989 16.8688 20.2686 16.9219L19.6855 17.9326C19.5566 18.1553 19.6328 18.4424 19.8555 18.5713L23.0869 20.4375C23.14 20.4679 23.1986 20.4875 23.2592 20.4953C23.3199 20.5031 23.3816 20.4988 23.4406 20.4828C23.4996 20.4667 23.5549 20.4392 23.6033 20.4018C23.6517 20.3643 23.6923 20.3177 23.7227 20.2646L24.3057 19.2539C24.4346 19.0312 24.3555 18.7441 24.1357 18.6152ZM20.2656 7.07812C20.296 7.13122 20.3366 7.17781 20.385 7.21524C20.4334 7.25266 20.4887 7.28018 20.5477 7.29623C20.6067 7.31228 20.6683 7.31655 20.729 7.30878C20.7897 7.30102 20.8483 7.28137 20.9014 7.25098L24.1328 5.38477C24.3555 5.25586 24.4316 4.96875 24.3027 4.74609L23.7227 3.73828C23.6923 3.68518 23.6517 3.63859 23.6033 3.60117C23.5549 3.56375 23.4996 3.53623 23.4406 3.52017C23.3816 3.50412 23.3199 3.49986 23.2592 3.50762C23.1986 3.51539 23.14 3.53503 23.0869 3.56543L19.8555 5.43164C19.7485 5.49401 19.6705 5.59622 19.6387 5.71591C19.6068 5.83559 19.6237 5.96302 19.6855 6.07031L20.2656 7.07812Z" fill="black"/>
</svg>
